# Blender 4.3.0
# www.blender.org
mtllib Cube.mtl
o Cube
v -1.000000 -1.000000 -1.000000
v -1.000000 1.000000 -1.000000
v 1.000000 -1.000000 1.000000
v 1.000000 1.000000 1.000000
v 1.000000 -1.000000 -1.000000
v 1.000000 1.000000 -1.000000
v 0.025943 -1.000000 1.000000
v -1.000000 -1.000000 -0.025943
v -0.366668 -1.000000 0.921905
v -0.699508 -1.000000 0.699508
v -0.921905 -1.000000 0.366668
v -1.000000 1.000000 -0.025943
v 0.025943 1.000000 1.000000
v -0.921905 1.000000 0.366668
v -0.699508 1.000000 0.699508
v -0.366668 1.000000 0.921905
vn -0.0000 -0.0000 1.0000
vn -0.0000 -0.0000 -1.0000
vn 1.0000 -0.0000 -0.0000
vn -0.0000 1.0000 -0.0000
vn -1.0000 -0.0000 -0.0000
vn -0.1951 -0.0000 0.9808
vn -0.5556 -0.0000 0.8315
vn -0.8315 -0.0000 0.5556
vn -0.9808 -0.0000 0.1951
vn -0.0000 -1.0000 -0.0000
vt 0.375000 0.750000
vt 0.625000 0.750000
vt 0.625000 0.871757
vt 0.375000 0.871757
vt 0.375000 0.250000
vt 0.625000 0.250000
vt 0.625000 0.500000
vt 0.375000 0.500000
vt 0.875000 0.500000
vt 0.875000 0.621757
vt 0.865238 0.670834
vt 0.837439 0.712439
vt 0.795834 0.740238
vt 0.746757 0.750000
vt 0.375000 0.128243
vt 0.625000 0.128243
vt 0.625000 0.920834
vt 0.375000 0.920834
vt 0.625000 1.000000
vt 0.375000 1.000000
vt 0.375000 0.000000
vt 0.625000 0.000000
vt 0.625000 0.079166
vt 0.375000 0.079166
vt 0.125000 0.500000
vt 0.253243 0.750000
vt 0.204166 0.740238
vt 0.162561 0.712439
vt 0.134762 0.670834
vt 0.125000 0.621757
s 0
f 3/1/1 4/2/1 13/3/1 7/4/1
f 1/5/2 2/6/2 6/7/2 5/8/2
f 5/8/3 6/7/3 4/2/3 3/1/3
f 6/7/4 2/9/4 12/10/4 14/11/4 15/12/4 16/13/4 13/14/4 4/2/4
f 8/15/5 12/16/5 2/6/5 1/5/5
f 7/4/6 13/3/6 16/17/6 9/18/6
f 9/18/7 16/17/7 15/19/7 10/20/7
f 10/21/8 15/22/8 14/23/8 11/24/8
f 11/24/9 14/23/9 12/16/9 8/15/9
f 1/25/10 5/8/10 3/1/10 7/26/10 9/27/10 10/28/10 11/29/10 8/30/10
